<svg width="139" height="115" viewBox="0 0 139 115" fill="none" xmlns="http://www.w3.org/2000/svg">
<g filter="url(#filter0_d_434_987)">
<path d="M117.669 9.30956C108.657 5.17392 99.1473 2.22453 89.3769 0.535186C89.2877 0.517828 89.1954 0.529228 89.1131 0.567742C89.0309 0.606257 88.963 0.669894 88.9193 0.749478C87.7031 2.92135 86.3478 5.75348 85.398 7.98906C74.8652 6.39196 64.1519 6.39196 53.6191 7.98906C52.5583 5.51369 51.3654 3.09703 50.0456 0.749478C49.9983 0.67331 49.9299 0.612519 49.8487 0.574481C49.7674 0.536443 49.6769 0.522792 49.5881 0.535186C39.8161 2.21814 30.3052 5.16778 21.2958 9.30956C21.2237 9.34802 21.1605 9.40132 21.1105 9.46593C3.08681 36.3914 -1.85348 62.6508 0.573229 88.5801C0.578438 88.6446 0.597105 88.7073 0.628029 88.7642C0.658952 88.821 0.701446 88.8708 0.752771 88.9102C11.2449 96.6838 22.9818 102.618 35.4622 106.459C35.5503 106.483 35.6434 106.48 35.73 106.451C35.8165 106.422 35.8926 106.369 35.9487 106.297C38.6338 102.652 41.009 98.7892 43.0493 94.7482C43.0778 94.6929 43.0942 94.6322 43.0975 94.5701C43.1008 94.508 43.0909 94.4459 43.0685 94.3879C43.0461 94.3299 43.0116 94.2773 42.9674 94.2336C42.9231 94.1899 42.8701 94.156 42.8119 94.1343C39.0661 92.7037 35.4405 90.9761 31.9699 88.9681C31.9062 88.9313 31.8526 88.8794 31.8139 88.8169C31.7752 88.7544 31.7526 88.6833 31.748 88.6099C31.7434 88.5365 31.757 88.4631 31.7877 88.3963C31.8183 88.3295 31.865 88.2712 31.9235 88.2268C32.6549 87.6801 33.3733 87.1163 34.078 86.5356C34.1383 86.4831 34.2129 86.4495 34.2922 86.4392C34.3716 86.4289 34.4522 86.4423 34.524 86.4777C57.2736 96.8622 81.8998 96.8622 104.383 86.4777C104.456 86.441 104.537 86.4269 104.618 86.4372C104.698 86.4476 104.774 86.4819 104.835 86.5356C105.534 87.111 106.254 87.6747 106.995 88.2268C107.053 88.2705 107.099 88.3277 107.13 88.3934C107.161 88.4591 107.175 88.5313 107.172 88.6037C107.168 88.6762 107.147 88.7467 107.111 88.8092C107.074 88.8717 107.022 88.9243 106.96 88.9623C103.496 90.9868 99.8675 92.715 96.1126 94.1285C96.0541 94.1509 96.001 94.1854 95.9567 94.2296C95.9125 94.2739 95.878 94.327 95.8556 94.3854C95.8332 94.4439 95.8234 94.5064 95.8267 94.5689C95.8301 94.6314 95.8466 94.6925 95.8751 94.7482C97.9601 98.7908 100.346 102.636 102.97 106.291C103.026 106.363 103.102 106.417 103.189 106.446C103.275 106.474 103.368 106.477 103.456 106.453C115.959 102.628 127.716 96.693 138.218 88.9044C138.268 88.8675 138.311 88.8207 138.343 88.767C138.374 88.7132 138.395 88.6536 138.403 88.5917C141.299 58.6082 133.55 32.5631 117.849 9.47752C117.812 9.39935 117.748 9.34321 117.669 9.30956ZM46.449 72.7862C39.6033 72.7862 33.9564 66.5023 33.9564 58.7762C33.9564 51.0559 39.4932 44.7661 46.449 44.7661C53.4569 44.7661 59.0517 51.1138 58.9416 58.782C58.9416 66.5023 53.4048 72.7862 46.449 72.7862ZM92.6376 72.7862C85.786 72.7862 80.1449 66.5023 80.1449 58.7762C80.1449 51.0559 85.676 44.7661 92.6376 44.7661C99.6455 44.7661 105.24 51.1138 105.13 58.782C105.13 66.5023 99.6513 72.7862 92.6376 72.7862Z" fill="white"/>
</g>
<defs>
<filter id="filter0_d_434_987" x="-4.00293" y="0.527283" width="147.004" height="113.948" filterUnits="userSpaceOnUse" color-interpolation-filters="sRGB">
<feFlood flood-opacity="0" result="BackgroundImageFix"/>
<feColorMatrix in="SourceAlpha" type="matrix" values="0 0 0 0 0 0 0 0 0 0 0 0 0 0 0 0 0 0 127 0" result="hardAlpha"/>
<feOffset dy="4"/>
<feGaussianBlur stdDeviation="2"/>
<feComposite in2="hardAlpha" operator="out"/>
<feColorMatrix type="matrix" values="0 0 0 0 0 0 0 0 0 0 0 0 0 0 0 0 0 0 0.25 0"/>
<feBlend mode="normal" in2="BackgroundImageFix" result="effect1_dropShadow_434_987"/>
<feBlend mode="normal" in="SourceGraphic" in2="effect1_dropShadow_434_987" result="shape"/>
</filter>
</defs>
</svg>
