<svg width="94" height="89" viewBox="0 0 94 89" fill="none" xmlns="http://www.w3.org/2000/svg">
<g filter="url(#filter0_d_434_1008)">
<path fill-rule="evenodd" clip-rule="evenodd" d="M48.7183 0.000320078C48.7651 -0.00303965 48.8619 0.0204784 48.9354 0.050716C49.0088 0.0809535 49.1123 0.144788 49.1624 0.191825C49.2158 0.24222 49.2793 0.319494 49.3027 0.36653C49.326 0.413567 49.5965 1.44164 50.4613 4.85177L63.5241 7.16662C70.7067 8.43996 76.637 9.49491 76.7004 9.51507C76.7639 9.53187 76.8674 9.58226 76.9242 9.62594C76.9843 9.66962 77.0644 9.77041 77.1045 9.84768C77.1512 9.94176 77.1746 10.0526 77.1713 10.1601C77.1713 10.2508 76.6671 13.1772 74.9441 22.9943L78.5537 23.0111C81.8561 23.0279 82.18 23.0346 82.4104 23.0917C82.5473 23.1253 82.7744 23.1892 82.9113 23.2328C83.0482 23.2799 83.3253 23.3975 83.529 23.4983C83.7327 23.5991 84.0232 23.7771 84.1802 23.8947C84.3371 24.0157 84.6009 24.2542 84.7645 24.4289C84.9281 24.6036 85.1385 24.8556 85.232 24.9933C85.3222 25.1311 85.4624 25.373 85.5425 25.5309C85.6193 25.6888 85.7295 25.9509 85.7796 26.1188C85.833 26.2868 85.9065 26.5489 85.9399 26.7068C85.9967 26.9823 86 27.8894 86 77.6235L85.9132 77.9426C85.8631 78.1173 85.7796 78.3761 85.7195 78.5138C85.6628 78.6516 85.5425 78.8867 85.4557 79.0346C85.3656 79.1824 85.1652 79.4377 85.0116 79.6024C84.858 79.767 84.6176 79.9887 84.4807 80.0895C84.3438 80.1937 84.0933 80.3482 83.9297 80.4356C83.7661 80.5196 83.5157 80.6304 83.3788 80.6808C83.2419 80.7279 83.0014 80.8018 82.8445 80.8387C82.6876 80.8757 82.387 80.9261 82.1767 80.953C81.8494 80.9933 76.8674 81 47.5329 81C17.1466 81 13.2264 80.9933 12.8558 80.9496C12.6254 80.9227 12.2514 80.8522 12.021 80.7951C11.7906 80.7379 11.4533 80.6304 11.2697 80.5599C11.086 80.4893 10.7988 80.3617 10.6352 80.2743C10.4716 80.1903 10.2312 80.0492 10.101 79.9686C9.97073 79.8846 9.74032 79.7166 9.58338 79.5923C9.42978 79.4713 9.17601 79.2429 9.01906 79.085C8.86546 78.927 8.62504 78.6448 8.4848 78.46C8.34455 78.2719 8.15422 77.9695 8.05739 77.7881C7.96389 77.6033 7.83032 77.2976 7.76354 77.1027C7.66671 76.8205 6.90538 73.0274 3.90348 57.8683C1.84655 47.4834 0.126888 38.785 0.0834789 38.5398C0.0367307 38.2911 0 37.972 0 37.8107C0 37.6528 0.0300524 37.3706 0.0667832 37.1791C0.103514 36.9909 0.166958 36.7289 0.210367 36.6012C0.253776 36.4735 0.360629 36.2283 0.444108 36.0636C0.530926 35.8957 0.694545 35.6403 0.811415 35.4925C0.928286 35.3447 1.11528 35.1464 1.22213 35.0524C1.32898 34.9583 1.51598 34.8105 1.63619 34.7231C1.7564 34.6358 1.9868 34.4946 2.15376 34.414C2.31738 34.33 2.6179 34.2091 2.82159 34.1486C3.02194 34.0848 3.32246 34.0075 3.48942 33.9772C3.67641 33.9436 4.09381 33.9168 4.60136 33.9C5.10223 33.8865 5.40944 33.8664 5.40944 33.8462C5.40944 33.8261 5.32596 33.396 5.22578 32.8887C5.12561 32.3814 5.02543 31.7934 5.00874 31.5851C4.98536 31.3331 4.98536 31.0845 5.00874 30.8292C5.02877 30.6242 5.0822 30.295 5.12895 30.1001C5.17569 29.9053 5.26585 29.6197 5.3293 29.4618C5.39608 29.3039 5.50961 29.0687 5.58307 28.941C5.65987 28.81 5.80012 28.5983 5.89695 28.4707C5.99045 28.3396 6.18746 28.1179 6.33104 27.9701C6.47797 27.8256 6.70169 27.6274 6.82858 27.5299C6.95547 27.4359 7.18253 27.2847 7.32945 27.1973C7.47637 27.1133 7.73683 26.9823 7.90379 26.9084C8.07408 26.8345 8.36125 26.7303 8.53823 26.6766C8.71854 26.6228 9.05246 26.5489 9.28286 26.5086C9.51326 26.4683 9.76036 26.438 9.83382 26.438C9.90728 26.438 9.99744 26.4279 10.0342 26.4179C10.0843 26.4044 10.1243 26.3271 10.1944 26.1088C10.2445 25.9475 10.3514 25.6888 10.4282 25.5309C10.5083 25.373 10.6519 25.1244 10.7521 24.9765C10.8523 24.8287 11.0626 24.5734 11.2196 24.4087C11.3765 24.2475 11.6303 24.0157 11.7872 23.8981C11.9442 23.7771 12.2347 23.5991 12.4384 23.4983C12.6421 23.3975 12.9192 23.2799 13.0561 23.2328C13.193 23.1892 13.4201 23.1253 13.557 23.0917C13.7507 23.0481 14.0144 23.0346 14.7357 23.0245C15.3201 23.0145 15.6606 22.9977 15.6606 22.9775C15.6606 22.9573 14.916 20.0008 14.0044 16.3992C12.7022 11.2453 12.3549 9.83424 12.3716 9.74017C12.3849 9.67634 12.425 9.56547 12.4651 9.49491C12.5051 9.42436 12.592 9.33028 12.6554 9.28661C12.7456 9.22613 17.0197 8.12078 30.3029 4.71738C39.9463 2.24798 48.0137 0.175026 48.2341 0.114551C48.4545 0.0540757 48.6716 0.00367981 48.7183 0.000320078ZM26.9971 6.9516C19.7812 8.80281 13.8675 10.318 13.8642 10.3214C13.8575 10.3248 14.7658 13.9432 15.8844 18.3646L17.9146 26.4011C29.1508 26.4246 29.7619 26.4313 30.019 26.4817C30.176 26.5119 30.3229 26.5388 30.3463 26.5388C30.3763 26.5388 30.3863 25.0269 30.3863 19.0869V11.6384C30.5065 11.4032 30.6034 11.2924 30.6835 11.2352L30.8271 11.1345C46.1939 11.121 50.655 11.1076 50.655 11.0908C50.655 11.0773 50.1441 9.04807 49.5197 6.58203C48.8953 4.11599 48.3543 1.96576 48.3209 1.80113C48.2809 1.59619 48.2475 1.50884 48.2141 1.5122C48.1874 1.51556 46.3575 1.98256 44.1437 2.55035C41.9298 3.12151 34.2163 5.10039 26.9971 6.9516ZM51.433 8.69866L52.0408 11.1009C65.9484 11.1311 68.0921 11.1445 68.1522 11.1714C68.199 11.1949 68.2758 11.252 68.3292 11.2991C68.3793 11.3461 68.4494 11.4503 68.4861 11.5275C68.5496 11.672 68.5529 11.7829 68.5529 22.7826V33.8966L71.6717 33.8798C74.8172 15.912 75.7288 10.6977 75.7221 10.6943C75.7187 10.6943 70.149 9.70657 63.3438 8.50043C56.5386 7.29429 50.9422 6.29981 50.9021 6.28973C50.862 6.27965 50.8287 6.27629 50.8287 6.28301C50.8253 6.28973 51.0991 7.37828 51.433 8.69866ZM31.722 26.942C31.889 27.0025 32.1427 27.1234 32.3898 27.2477C32.6369 27.372 32.9842 27.5669 33.1578 27.6845C33.3315 27.7987 33.5953 27.9835 33.7422 28.0977C33.8891 28.2086 34.1729 28.4606 34.3733 28.6554C34.5736 28.8503 34.8341 29.1292 34.951 29.277C35.0678 29.4248 35.2615 29.6902 35.3784 29.8649C35.4952 30.0396 35.6756 30.3588 35.7757 30.5705C35.8759 30.7821 36.0128 31.1148 36.0763 31.3096C36.143 31.5112 36.2833 32.1126 36.3968 32.7039C36.5103 33.2751 36.6072 33.779 36.6172 33.8193L36.6306 33.8966H67.2172V12.4616H31.722V26.942ZM13.4902 24.5062C13.39 24.5398 13.203 24.6204 13.0728 24.6842C12.9459 24.7481 12.7489 24.8623 12.6387 24.9396C12.5285 25.0135 12.3549 25.158 12.2514 25.2621C12.1512 25.3629 12.0043 25.5309 11.9308 25.6317C11.854 25.7325 11.7405 25.9139 11.677 26.0349C11.6136 26.1558 11.5501 26.2868 11.5401 26.3271L11.5201 26.4044C15.4035 26.4044 16.5288 26.3943 16.5288 26.3775C16.5288 26.3641 16.412 25.9038 16.2684 25.3528L16.0113 24.355C14.4886 24.3583 14.0545 24.3751 13.9076 24.402C13.7807 24.4255 13.5904 24.4726 13.4902 24.5062ZM73.8789 29.0821C73.4281 31.649 73.0508 33.7824 73.0441 33.8294C73.024 33.9101 73.0341 33.9134 73.2511 33.9403C73.3746 33.9571 73.6217 34.0008 73.7954 34.0344C73.969 34.0713 74.2395 34.1385 74.3964 34.1856C74.5534 34.2359 74.8439 34.3435 75.0476 34.4308C75.2513 34.5182 75.5585 34.6727 75.7321 34.7769C75.9057 34.881 76.1762 35.0591 76.3331 35.1767C76.4901 35.2909 76.7906 35.563 77.001 35.7781C77.2113 35.9931 77.4718 36.2887 77.5753 36.4332C77.6788 36.581 77.8491 36.8599 77.9493 37.0548C78.0495 37.2496 78.1697 37.5117 78.2198 37.6427C78.2665 37.7704 78.3266 37.9619 78.3533 38.0627C78.3801 38.1635 79.7825 45.2323 81.4754 53.7694C83.1651 62.3065 84.5608 69.372 84.5809 69.4661C84.5976 69.5635 84.6276 69.6441 84.6476 69.6441C84.671 69.6441 84.6777 62.5316 84.671 48.3502L84.6643 27.0596C84.5441 26.6161 84.454 26.3675 84.3839 26.2196C84.3171 26.0718 84.1935 25.8534 84.1134 25.7325C84.0332 25.6115 83.8663 25.4167 83.7461 25.2957C83.6259 25.1748 83.4322 25.0068 83.312 24.9261C83.1918 24.8455 82.9747 24.7212 82.8278 24.6506C82.6809 24.5801 82.4405 24.4894 82.2935 24.4491L82.0264 24.3718C75.8657 24.355 74.697 24.3651 74.697 24.3886C74.697 24.4054 74.3297 26.5187 73.8789 29.0821ZM9.5166 27.8357C9.32293 27.8659 9.0224 27.9331 8.84877 27.9902C8.67513 28.0473 8.38796 28.1649 8.21433 28.2523C8.04069 28.3396 7.7769 28.5009 7.62998 28.6118C7.48305 28.7226 7.2827 28.9041 7.18253 29.0116C7.08569 29.1224 6.92875 29.324 6.84193 29.4618C6.75178 29.5995 6.63157 29.828 6.57146 29.9657C6.5147 30.1035 6.44124 30.3521 6.40784 30.5201C6.36777 30.7183 6.3444 30.9669 6.3444 31.2323C6.3444 31.6154 6.36443 31.7531 6.62823 33.097C6.78517 33.8966 6.91206 34.5753 6.91206 34.6022C6.91206 34.629 6.89536 34.7097 6.87866 34.7769C6.85863 34.8474 6.8052 34.9516 6.75512 35.012C6.70169 35.0692 6.60151 35.1464 6.52805 35.1767C6.40784 35.2338 6.28429 35.2405 5.37604 35.2405C4.81507 35.2405 4.20066 35.2539 4.00699 35.2741C3.81332 35.2909 3.53617 35.3379 3.38925 35.3783C3.24232 35.4152 2.99522 35.5059 2.83828 35.5798C2.68134 35.6538 2.4643 35.7814 2.35411 35.8587C2.24391 35.9393 2.06694 36.1006 1.96009 36.2182C1.85323 36.3358 1.70965 36.5474 1.63619 36.6852C1.56606 36.8229 1.47591 37.0581 1.43584 37.2059C1.38909 37.3941 1.36905 37.5789 1.36905 37.8275C1.36905 38.1601 1.5861 39.2789 5.159 57.3139C7.24263 67.8366 8.97566 76.5316 9.00905 76.6324C9.04244 76.7331 9.14261 76.9549 9.22609 77.1195C9.31291 77.2841 9.47653 77.5496 9.5934 77.7075C9.71027 77.8654 9.93399 78.1106 10.0876 78.2585C10.2412 78.4029 10.535 78.6314 10.7354 78.7658C10.9391 78.9035 11.2296 79.0749 11.3865 79.1488C11.5435 79.2227 11.8073 79.3269 11.9709 79.384C12.1378 79.4377 12.3983 79.5116 12.5552 79.5452C12.829 79.6024 14.1347 79.6057 47.4494 79.6057H82.0598C82.4739 79.4848 82.7009 79.4008 82.8278 79.3403C82.9547 79.2798 83.1517 79.1723 83.2619 79.095C83.3721 79.0211 83.5524 78.88 83.6592 78.7792C83.7694 78.6784 83.9297 78.5004 84.0199 78.3794C84.11 78.2585 84.2536 78.0233 84.3371 77.8587C84.4239 77.6839 84.5241 77.4219 84.5708 77.2371C84.6143 77.0624 84.6476 76.8642 84.6476 76.8003C84.6476 76.7365 82.9514 68.102 80.8744 57.6163C78.7974 47.1306 77.0644 38.4289 77.0177 38.2811C76.9743 38.1332 76.8741 37.8913 76.7973 37.7435C76.7238 37.5957 76.5903 37.3773 76.5068 37.2563C76.42 37.1354 76.2463 36.9271 76.1161 36.7893C75.9892 36.655 75.7621 36.45 75.6152 36.3358C75.4683 36.2215 75.288 36.0905 75.2145 36.0435C75.1411 35.9931 74.9307 35.8789 74.747 35.7881C74.5634 35.6941 74.2762 35.5731 74.1126 35.516C73.949 35.4622 73.6919 35.3917 73.5449 35.3648C73.398 35.3346 73.2244 35.301 73.1609 35.2875C73.0975 35.2741 64.6728 35.2539 54.445 35.2439L35.8459 35.2237C35.6689 35.0927 35.5821 35.0087 35.542 34.9549C35.4785 34.8743 35.4084 34.5686 35.1647 33.3591C34.9543 32.3007 34.8341 31.7867 34.7606 31.5952C34.7039 31.4474 34.5736 31.1685 34.4735 30.9737C34.3733 30.7788 34.1863 30.4764 34.0561 30.3017C33.9258 30.127 33.7055 29.8649 33.5652 29.7205C33.425 29.576 33.1946 29.3643 33.0577 29.2535C32.9208 29.1392 32.6737 28.9578 32.5067 28.8469C32.3431 28.7394 32.0125 28.5513 31.7721 28.4337C31.535 28.3127 31.1577 28.1582 30.9373 28.0843C30.7169 28.0137 30.3863 27.923 30.2027 27.8861C30.019 27.8491 29.6884 27.8021 29.4681 27.7853C29.2009 27.7618 25.9119 27.7517 19.6176 27.755C14.4218 27.7584 10.101 27.7651 10.0175 27.7718C9.93399 27.7785 9.71027 27.8054 9.5166 27.8357Z" fill="white"/>
</g>
<defs>
<filter id="filter0_d_434_1008" x="0" y="0" width="94" height="89" filterUnits="userSpaceOnUse" color-interpolation-filters="sRGB">
<feFlood flood-opacity="0" result="BackgroundImageFix"/>
<feColorMatrix in="SourceAlpha" type="matrix" values="0 0 0 0 0 0 0 0 0 0 0 0 0 0 0 0 0 0 127 0" result="hardAlpha"/>
<feOffset dx="4" dy="4"/>
<feGaussianBlur stdDeviation="2"/>
<feComposite in2="hardAlpha" operator="out"/>
<feColorMatrix type="matrix" values="0 0 0 0 0.0705882 0 0 0 0 0.0705882 0 0 0 0 0.0705882 0 0 0 0.25 0"/>
<feBlend mode="normal" in2="BackgroundImageFix" result="effect1_dropShadow_434_1008"/>
<feBlend mode="normal" in="SourceGraphic" in2="effect1_dropShadow_434_1008" result="shape"/>
</filter>
</defs>
</svg>
