<svg width="167" height="167" viewBox="0 0 167 167" fill="none" xmlns="http://www.w3.org/2000/svg">
<g filter="url(#filter0_d_434_999)">
<path fill-rule="evenodd" clip-rule="evenodd" d="M51.7877 24C45.4804 24 39.4313 26.5049 34.9705 30.964C30.5097 35.4231 28.0024 41.4712 28 47.7785V111.212C28 117.521 30.5062 123.572 34.9672 128.033C39.4283 132.494 45.4788 135 51.7877 135H115.221C121.529 134.998 127.577 132.49 132.036 128.03C136.495 123.569 139 117.52 139 111.212V47.7785C138.998 41.4728 136.492 35.4261 132.033 30.9672C127.574 26.5084 121.527 24.0024 115.221 24H51.7877ZM122.064 47.8151C122.064 49.6322 121.342 51.3748 120.057 52.6597C118.772 53.9445 117.029 54.6664 115.212 54.6664C113.395 54.6664 111.653 53.9445 110.368 52.6597C109.083 51.3748 108.361 49.6322 108.361 47.8151C108.361 45.998 109.083 44.2554 110.368 42.9705C111.653 41.6856 113.395 40.9638 115.212 40.9638C117.029 40.9638 118.772 41.6856 120.057 42.9705C121.342 44.2554 122.064 45.998 122.064 47.8151ZM83.5137 60.4945C78.4743 60.4945 73.6414 62.4964 70.078 66.0598C66.5147 69.6231 64.5128 74.4561 64.5128 79.4954C64.5128 84.5348 66.5147 89.3677 70.078 92.9311C73.6414 96.4945 78.4743 98.4963 83.5137 98.4963C88.5531 98.4963 93.386 96.4945 96.9494 92.9311C100.513 89.3677 102.515 84.5348 102.515 79.4954C102.515 74.4561 100.513 69.6231 96.9494 66.0598C93.386 62.4964 88.5531 60.4945 83.5137 60.4945ZM55.3686 79.4954C55.3686 72.0333 58.3329 64.8768 63.6094 59.6003C68.886 54.3238 76.0424 51.3595 83.5046 51.3595C90.9667 51.3595 98.1232 54.3238 103.4 59.6003C108.676 64.8768 111.641 72.0333 111.641 79.4954C111.641 86.9575 108.676 94.114 103.4 99.3906C98.1232 104.667 90.9667 107.631 83.5046 107.631C76.0424 107.631 68.886 104.667 63.6094 99.3906C58.3329 94.114 55.3686 86.9575 55.3686 79.4954Z" fill="white"/>
</g>
<defs>
<filter id="filter0_d_434_999" x="0" y="0" width="167" height="167" filterUnits="userSpaceOnUse" color-interpolation-filters="sRGB">
<feFlood flood-opacity="0" result="BackgroundImageFix"/>
<feColorMatrix in="SourceAlpha" type="matrix" values="0 0 0 0 0 0 0 0 0 0 0 0 0 0 0 0 0 0 127 0" result="hardAlpha"/>
<feOffset dy="4"/>
<feGaussianBlur stdDeviation="14"/>
<feComposite in2="hardAlpha" operator="out"/>
<feColorMatrix type="matrix" values="0 0 0 0 1 0 0 0 0 1 0 0 0 0 1 0 0 0 0.29 0"/>
<feBlend mode="normal" in2="BackgroundImageFix" result="effect1_dropShadow_434_999"/>
<feBlend mode="normal" in="SourceGraphic" in2="effect1_dropShadow_434_999" result="shape"/>
</filter>
</defs>
</svg>
