<svg width="179" height="180" viewBox="0 0 179 180" fill="none" xmlns="http://www.w3.org/2000/svg">
<g filter="url(#filter0_d_434_995)">
<path d="M101.203 73.2813V90.7388C101.203 91.1808 100.862 91.5245 100.424 91.5245H97.6507C97.383 91.5245 97.1397 91.3772 97.0181 91.2054L89.0864 80.4018V90.7634C89.0864 91.2053 88.7458 91.5491 88.3078 91.5491H85.5342C85.0962 91.5491 84.7556 91.2053 84.7556 90.7634V73.3058C84.7556 72.8639 85.0962 72.5201 85.5342 72.5201H88.2835C88.5268 72.5201 88.7944 72.6429 88.9161 72.8638L96.8478 83.6674V73.3058C96.8478 72.8639 97.1884 72.5201 97.6263 72.5201H100.4C100.838 72.4955 101.203 72.8639 101.203 73.2813ZM81.252 72.4955H78.4784C78.0404 72.4955 77.6998 72.8393 77.6998 73.2813V90.7388C77.6998 91.1808 78.0404 91.5245 78.4784 91.5245H81.252C81.69 91.5245 82.0306 91.1808 82.0306 90.7388V73.2813C82.0306 72.8639 81.69 72.4955 81.252 72.4955ZM74.5612 87.1295H66.9944V73.2813C66.9944 72.8393 66.6538 72.4955 66.2159 72.4955H63.4422C63.0043 72.4955 62.6636 72.8393 62.6636 73.2813V90.7388C62.6636 90.9598 62.7366 91.1317 62.8826 91.279C63.0286 91.4018 63.1989 91.5 63.4179 91.5H74.5368C74.9748 91.5 75.3154 91.1562 75.3154 90.7143V87.9152C75.3154 87.4978 74.9748 87.1295 74.5612 87.1295ZM115.801 72.4955H104.682C104.269 72.4955 103.904 72.8393 103.904 73.2813V90.7388C103.904 91.1562 104.244 91.5245 104.682 91.5245H115.801C116.239 91.5245 116.58 91.1808 116.58 90.7388V87.9397C116.58 87.4978 116.239 87.154 115.801 87.154H108.234V84.2076H115.801C116.239 84.2076 116.58 83.8638 116.58 83.4219V80.5982C116.58 80.1563 116.239 79.8125 115.801 79.8125H108.234V76.8661H115.801C116.239 76.8661 116.58 76.5223 116.58 76.0804V73.2813C116.555 72.8639 116.215 72.4955 115.801 72.4955ZM144 51.0603V121.112C143.976 132.112 135.046 141.025 124.122 141H54.7076C43.8076 140.975 34.9757 131.94 35.0001 120.94V50.8884C35.0244 39.8884 43.9779 30.9755 54.8779 31.0001H124.292C135.192 31.0246 144.024 40.0358 144 51.0603ZM129.012 81.163C129.012 63.2389 111.203 48.6541 89.3297 48.6541C67.4567 48.6541 49.6469 63.2389 49.6469 81.163C49.6469 97.221 63.7585 110.676 82.8335 113.23C87.4806 114.237 86.9453 115.955 85.8991 122.266C85.7288 123.272 85.0962 126.219 89.3297 124.426C93.5632 122.634 112.176 110.848 120.521 101.174C126.263 94.7902 129.012 88.3326 129.012 81.163Z" fill="white"/>
</g>
<defs>
<filter id="filter0_d_434_995" x="0" y="0" width="179" height="180" filterUnits="userSpaceOnUse" color-interpolation-filters="sRGB">
<feFlood flood-opacity="0" result="BackgroundImageFix"/>
<feColorMatrix in="SourceAlpha" type="matrix" values="0 0 0 0 0 0 0 0 0 0 0 0 0 0 0 0 0 0 127 0" result="hardAlpha"/>
<feOffset dy="4"/>
<feGaussianBlur stdDeviation="17.5"/>
<feComposite in2="hardAlpha" operator="out"/>
<feColorMatrix type="matrix" values="0 0 0 0 0.85098 0 0 0 0 0.85098 0 0 0 0 0.85098 0 0 0 0.29 0"/>
<feBlend mode="normal" in2="BackgroundImageFix" result="effect1_dropShadow_434_995"/>
<feBlend mode="normal" in="SourceGraphic" in2="effect1_dropShadow_434_995" result="shape"/>
</filter>
</defs>
</svg>
