<svg width="149" height="69" viewBox="0 0 149 69" fill="none" xmlns="http://www.w3.org/2000/svg">
<path fill-rule="evenodd" clip-rule="evenodd" d="M78 20.5233V10.5449C78 9.69811 78.1927 9.06048 78.5793 8.63651C78.9592 8.20919 79.4635 8 80.0809 8C80.7376 8 81.2541 8.20919 81.6351 8.63651C82.0184 9.06048 82.2122 9.69811 82.2122 10.5494V20.7671C82.2122 21.9272 82.3411 22.8993 82.5988 23.6767C82.8622 24.4564 83.3227 25.0605 83.9827 25.4923C84.645 25.9185 85.5762 26.1367 86.7707 26.1367C88.4113 26.1367 89.5733 25.697 90.258 24.829C90.9348 23.9497 91.2777 22.6241 91.2777 20.8499V10.5494C91.2777 9.68357 91.4693 9.04706 91.8458 8.63204C92.2201 8.20919 92.7277 8 93.3608 8C93.9928 8 94.5038 8.20919 94.8983 8.62756C95.2905 9.04706 95.4854 9.68357 95.4854 10.5494V20.53C95.4854 22.1543 95.3286 23.5112 95.0114 24.5952C94.6966 25.6791 94.0993 26.6367 93.2196 27.4589C92.4632 28.1513 91.5847 28.6614 90.5818 28.9758C89.5811 29.2935 88.409 29.459 87.0632 29.459C85.4675 29.459 84.0937 29.2834 82.9384 28.9366C81.7853 28.5921 80.8395 28.0607 80.1134 27.3414C79.3861 26.6199 78.855 25.6881 78.5132 24.5683C78.1737 23.4351 78 22.0927 78 20.5233Z" fill="white"/>
<path fill-rule="evenodd" clip-rule="evenodd" d="M106.749 25.9722L103.41 12.7498V27.0808C103.41 27.8672 103.236 28.4679 102.885 28.8606C102.533 29.2622 102.063 29.459 101.482 29.459C100.916 29.459 100.457 29.2622 100.099 28.8684C99.7436 28.4757 99.5654 27.8806 99.5654 27.0808V10.6624C99.5654 9.75403 99.7985 9.14325 100.276 8.82555C100.742 8.51457 101.377 8.35349 102.182 8.35349H103.481C104.267 8.35349 104.832 8.42955 105.188 8.56938C105.54 8.71257 105.799 8.9665 105.975 9.3323C106.143 9.69922 106.335 10.2977 106.556 11.1289L109.577 22.4921L112.592 11.1289C112.813 10.2977 113.003 9.69922 113.175 9.3323C113.343 8.9665 113.606 8.71257 113.96 8.56938C114.317 8.42955 114.883 8.35349 115.67 8.35349H116.971C117.774 8.35349 118.408 8.51457 118.883 8.82555C119.358 9.14325 119.593 9.75403 119.593 10.6624V27.0808C119.593 27.8694 119.414 28.4679 119.058 28.8606C118.712 29.2622 118.236 29.459 117.645 29.459C117.089 29.459 116.633 29.2622 116.279 28.8606C115.916 28.4679 115.744 27.8672 115.744 27.0808V12.7498L112.408 25.9722C112.188 26.8313 112.008 27.4678 111.874 27.8627C111.732 28.2666 111.478 28.6301 111.113 28.9601C110.745 29.2935 110.233 29.459 109.577 29.459C109.088 29.459 108.668 29.3539 108.325 29.1357C107.985 28.9243 107.723 28.657 107.536 28.3258C107.344 27.9903 107.194 27.6278 107.083 27.2273C106.974 26.8257 106.867 26.4085 106.749 25.9722Z" fill="white"/>
<path fill-rule="evenodd" clip-rule="evenodd" d="M129.159 10.5181L137.26 22.7483V10.4051C137.26 9.60526 137.431 9.00231 137.775 8.59288C138.12 8.19912 138.58 8 139.164 8C139.766 8 140.242 8.19912 140.587 8.59288C140.933 9.00231 141.106 9.60526 141.106 10.4051V26.7217C141.106 28.5451 140.353 29.459 138.851 29.459C138.473 29.459 138.136 29.4031 137.834 29.2935C137.534 29.1827 137.246 29.0161 136.981 28.7778C136.721 28.5451 136.475 28.2666 136.251 27.95C136.026 27.6356 135.798 27.3112 135.572 26.9779L127.672 14.9009V27.0517C127.672 27.846 127.482 28.4422 127.114 28.8483C126.748 29.2543 126.274 29.459 125.696 29.459C125.104 29.459 124.619 29.2465 124.263 28.8371C123.9 28.4344 123.724 27.8348 123.724 27.0517V11.0416C123.724 10.3592 123.798 9.82787 123.95 9.44529C124.131 9.02021 124.429 8.67231 124.848 8.40048C125.264 8.132 125.711 8 126.191 8C126.575 8 126.895 8.05929 127.165 8.18122C127.437 8.30651 127.672 8.47095 127.874 8.67902C128.077 8.88485 128.289 9.15445 128.5 9.48109C128.712 9.81557 128.932 10.159 129.159 10.5181Z" fill="white"/>
<path fill-rule="evenodd" clip-rule="evenodd" d="M78 35.464H78.7642V39.3188C78.7642 39.7092 78.9032 40.0034 79.1811 40.207C79.4635 40.4073 79.7694 40.5079 80.1022 40.5079C80.4406 40.5079 80.7488 40.4073 81.0334 40.207C81.318 40.009 81.457 39.7148 81.457 39.3188V35.464H82.2246V39.3188C82.2246 39.8759 82.0094 40.3021 81.5769 40.6075C81.141 40.9073 80.6658 41.0617 80.1414 41.074H80.0988C79.5968 41.074 79.1385 40.933 78.7183 40.6534C78.2958 40.3737 78.056 39.9307 78 39.3188V35.464Z" fill="white"/>
<path fill-rule="evenodd" clip-rule="evenodd" d="M84.8803 35.464H85.76L88.4583 39.8491V35.464H89.1598V40.9006H88.3362L85.5807 36.5692V40.9006H84.8803V35.464Z" fill="white"/>
<path fill-rule="evenodd" clip-rule="evenodd" d="M91.8738 40.9006H92.5753V35.464H91.8738V40.9006Z" fill="white"/>
<path fill-rule="evenodd" clip-rule="evenodd" d="M94.8927 35.464H95.649L97.2369 40.0258L98.7575 35.464H99.5262L97.5876 40.9006H96.8189L94.8927 35.464Z" fill="white"/>
<path fill-rule="evenodd" clip-rule="evenodd" d="M101.883 35.464H105.633V36.0412H102.588V37.8042H105.525V38.4418H102.588V40.2562H105.752V40.9006H101.883V35.464Z" fill="white"/>
<path fill-rule="evenodd" clip-rule="evenodd" d="M108.348 35.464H111.113C111.497 35.464 111.822 35.5881 112.091 35.8342C112.356 36.0803 112.518 36.426 112.575 36.8634C112.575 36.954 112.566 37.0502 112.557 37.152C112.548 37.2549 112.528 37.3567 112.498 37.4607C112.454 37.5983 112.379 37.7359 112.275 37.8668C112.172 37.9966 112.018 38.1118 111.812 38.2114C112.084 38.3422 112.262 38.5201 112.341 38.7338C112.415 38.953 112.458 39.1723 112.461 39.4016V39.6924C112.458 39.9039 112.467 40.1019 112.488 40.2909C112.51 40.4744 112.595 40.6176 112.753 40.725V40.9006H111.873C111.837 40.8033 111.812 40.7037 111.795 40.5952C111.78 40.4956 111.764 40.3871 111.76 40.2797C111.756 40.2294 111.751 40.1735 111.751 40.1209C111.746 40.0672 111.746 40.0124 111.746 39.962V39.8826C111.737 39.5694 111.7 39.2808 111.619 39.0302C111.545 38.7763 111.294 38.6219 110.874 38.5593H109.059V40.9006H108.348V35.464ZM110.934 37.9116C110.95 37.9205 110.963 37.9205 110.981 37.9205H111.027C111.252 37.9205 111.444 37.8265 111.598 37.6375C111.756 37.4484 111.837 37.237 111.844 37.0122V36.9685C111.837 36.7672 111.751 36.5759 111.589 36.4025C111.423 36.2258 111.143 36.1262 110.757 36.1005H109.059V37.9116H110.934Z" fill="white"/>
<path fill-rule="evenodd" clip-rule="evenodd" d="M115.587 39.1466C115.587 39.5907 115.734 39.9128 116.031 40.1254C116.323 40.3379 116.651 40.4498 117.009 40.4632H117.059C117.388 40.4632 117.674 40.3894 117.943 40.2451C118.207 40.0996 118.361 39.8882 118.4 39.6197C118.405 39.5974 118.409 39.5772 118.409 39.5627V39.5045C118.409 39.1555 118.262 38.9217 117.975 38.802C117.683 38.679 117.348 38.585 116.979 38.5123C116.933 38.4977 116.892 38.4921 116.855 38.4821C116.812 38.4765 116.773 38.4687 116.732 38.4563C116.291 38.3635 115.893 38.2136 115.529 38.0089C115.174 37.8064 115.013 37.4048 115.056 36.8075C115.085 36.426 115.265 36.0949 115.587 35.8152C115.91 35.54 116.376 35.3991 116.994 35.3991C117.609 35.3991 118.101 35.54 118.473 35.823C118.84 36.1049 119.01 36.5144 118.983 37.0357H118.282V36.9585C118.282 36.6486 118.155 36.4148 117.891 36.2481C117.629 36.0882 117.346 35.9998 117.034 35.9886H116.994C116.682 35.9886 116.408 36.0636 116.154 36.2179C115.905 36.3678 115.773 36.5994 115.76 36.9249C115.798 37.1867 115.948 37.3713 116.208 37.4809C116.467 37.5872 116.773 37.6755 117.114 37.7494C117.177 37.7684 117.237 37.7796 117.299 37.7908C117.361 37.8098 117.429 37.8243 117.492 37.8389C117.894 37.9306 118.27 38.076 118.612 38.2662C118.958 38.4563 119.162 38.7919 119.218 39.2685C119.247 39.8569 119.038 40.301 118.577 40.6153C118.123 40.9218 117.616 41.0796 117.064 41.0908H117.037C116.489 41.0908 115.992 40.9319 115.537 40.6153C115.081 40.301 114.864 39.8099 114.877 39.1466H115.587Z" fill="white"/>
<path fill-rule="evenodd" clip-rule="evenodd" d="M121.698 40.9006H122.403V35.464H121.698V40.9006Z" fill="white"/>
<path fill-rule="evenodd" clip-rule="evenodd" d="M126.475 36.0412H124.656V35.464H128.941V36.0412H127.237V40.9006H126.475V36.0412Z" fill="white"/>
<path fill-rule="evenodd" clip-rule="evenodd" d="M132.126 35.464H133.003L134.991 40.9006H134.175L133.586 39.3188H131.533L131.005 40.9006H130.19L132.126 35.464ZM133.356 38.6767L132.594 36.3958L131.705 38.6767H133.356Z" fill="white"/>
<path fill-rule="evenodd" clip-rule="evenodd" d="M137.597 39.1466C137.597 39.5907 137.745 39.9128 138.038 40.1254C138.336 40.3379 138.661 40.4498 139.017 40.4632H139.069C139.394 40.4632 139.689 40.3894 139.953 40.2451C140.222 40.0996 140.372 39.8882 140.411 39.6197C140.416 39.5974 140.416 39.5772 140.416 39.5627V39.5045C140.416 39.1555 140.276 38.9217 139.981 38.802C139.693 38.679 139.362 38.585 138.989 38.5123C138.946 38.4977 138.9 38.4921 138.864 38.4821C138.82 38.4765 138.781 38.4687 138.741 38.4563C138.304 38.3635 137.9 38.2136 137.542 38.0089C137.182 37.8064 137.023 37.4048 137.07 36.8075C137.099 36.426 137.271 36.0949 137.597 35.8152C137.919 35.54 138.388 35.3991 139.002 35.3991C139.619 35.3991 140.11 35.54 140.487 35.823C140.854 36.1049 141.024 36.5144 140.993 37.0357H140.292V36.9585C140.292 36.6486 140.163 36.4148 139.902 36.2481C139.641 36.0882 139.353 35.9998 139.042 35.9886H138.997C138.69 35.9886 138.417 36.0636 138.166 36.2179C137.916 36.3678 137.78 36.5994 137.767 36.9249C137.807 37.1867 137.959 37.3713 138.22 37.4809C138.476 37.5872 138.779 37.6755 139.122 37.7494C139.182 37.7684 139.243 37.7796 139.309 37.7908C139.375 37.8098 139.438 37.8243 139.499 37.8389C139.902 37.9306 140.276 38.076 140.626 38.2662C140.971 38.4563 141.172 38.7919 141.227 39.2685C141.263 39.8569 141.046 40.301 140.587 40.6153C140.132 40.9218 139.625 41.0796 139.069 41.0908H139.048C138.502 41.0908 138 40.9319 137.546 40.6153C137.093 40.301 136.878 39.8099 136.888 39.1466H137.597Z" fill="white"/>
<path fill-rule="evenodd" clip-rule="evenodd" d="M78 45.1615H79.0511L80.5818 49.7267L82.1091 45.1615H83.1647V50.6015H82.3949V46.2701L80.9314 50.6015H80.2299L78.7642 46.3305V50.6015H78V45.1615Z" fill="white"/>
<path fill-rule="evenodd" clip-rule="evenodd" d="M86.2306 45.1615H86.9892V49.0186C86.9892 49.4135 87.1293 49.7055 87.4072 49.9113C87.684 50.1093 87.9978 50.2133 88.3272 50.2133C88.6679 50.2133 88.9749 50.1149 89.2573 49.9135C89.5442 49.7167 89.691 49.4146 89.691 49.0186V45.1615H90.4496V49.0186C90.4496 49.5735 90.2367 50.0041 89.7974 50.3073C89.3682 50.6116 88.8875 50.7648 88.3653 50.7738H88.3182C87.8241 50.7738 87.368 50.6295 86.9411 50.3532C86.5197 50.0757 86.2833 49.6249 86.2306 49.0186V45.1615Z" fill="white"/>
<path fill-rule="evenodd" clip-rule="evenodd" d="M93.5659 45.1615H94.3256V49.956H96.9736V50.6015H93.5659V45.1615Z" fill="white"/>
<path fill-rule="evenodd" clip-rule="evenodd" d="M100.619 45.7432H98.799V45.1615H103.083V45.7432H101.376V50.6015H100.619V45.7432Z" fill="white"/>
<path fill-rule="evenodd" clip-rule="evenodd" d="M105.961 50.6026H106.668V45.1615H105.961V50.6026Z" fill="white"/>
<path fill-rule="evenodd" clip-rule="evenodd" d="M109.913 45.1615H110.963L112.488 49.7267L114.016 45.1615H115.075V50.6015H114.307V46.2701L112.841 50.6015H112.142L110.674 46.3305V50.6015H109.913V45.1615Z" fill="white"/>
<path fill-rule="evenodd" clip-rule="evenodd" d="M118.25 45.1615H122.007V45.7432H118.959V47.5051H121.89V48.145H118.959V49.956H122.126V50.6015H118.25V45.1615Z" fill="white"/>
<path fill-rule="evenodd" clip-rule="evenodd" d="M127.415 45.1615C127.481 45.1615 127.542 45.1649 127.608 45.1761C127.671 45.1794 127.734 45.1906 127.801 45.1995C128.248 45.2946 128.659 45.5474 129.026 45.9658C129.398 46.382 129.581 46.9726 129.581 47.7366C129.581 47.8575 129.573 47.9827 129.57 48.1069C129.555 48.2367 129.542 48.3631 129.52 48.4917C129.437 49.0209 129.236 49.503 128.918 49.9471C128.594 50.3834 128.093 50.6015 127.415 50.6015H125.238V45.1615H127.415ZM127.588 49.9023C127.976 49.9023 128.279 49.6976 128.486 49.2871C128.69 48.8687 128.791 48.4101 128.791 47.9011V47.834C128.781 47.3261 128.659 46.8563 128.43 46.4357C128.196 46.0117 127.834 45.8003 127.356 45.8003H125.949V49.9023H127.588Z" fill="white"/>
<path fill-rule="evenodd" clip-rule="evenodd" d="M132.637 50.6026H133.347V45.1615H132.637V50.6026Z" fill="white"/>
<path fill-rule="evenodd" clip-rule="evenodd" d="M138.059 45.1615H138.933L140.924 50.6015H140.104L139.517 49.0186H137.467L136.939 50.6015H136.123L138.059 45.1615ZM139.286 48.3787L138.528 46.0978L137.639 48.3787H139.286Z" fill="white"/>
<path fill-rule="evenodd" clip-rule="evenodd" d="M78 54.8602H78.883L81.5802 59.2476V54.8602H82.284V60.3069H81.457L78.7037 55.9677V60.3069H78V54.8602Z" fill="white"/>
<path fill-rule="evenodd" clip-rule="evenodd" d="M85.7006 54.8602H86.4581V58.7218C86.4581 59.1133 86.6004 59.4075 86.8817 59.6066C87.1596 59.8091 87.4688 59.9098 87.8017 59.9098C88.1389 59.9098 88.4471 59.8125 88.7295 59.6111C89.0141 59.4131 89.1564 59.1167 89.1564 58.7218V54.8602H89.924V58.7218C89.924 59.2755 89.7055 59.7073 89.2696 60.0071C88.8359 60.3103 88.3575 60.4714 87.8386 60.477H87.7927C87.2952 60.477 86.8391 60.3326 86.4155 60.0541C85.993 59.7744 85.7521 59.3303 85.7006 58.7218V54.8602Z" fill="white"/>
<path fill-rule="evenodd" clip-rule="evenodd" d="M93.8662 58.5529C93.8662 58.9914 94.0096 59.3203 94.31 59.525C94.6058 59.7386 94.9296 59.8494 95.2905 59.8684H95.3499C95.667 59.8684 95.9583 59.7935 96.2217 59.6492C96.4895 59.5004 96.6441 59.2945 96.68 59.0205C96.6867 59.0026 96.6889 58.9824 96.6889 58.9612V58.9086C96.6889 58.5585 96.5444 58.3247 96.2508 58.2061C95.9617 58.0819 95.6278 57.988 95.2557 57.9119C95.2143 57.9018 95.1706 57.8929 95.1336 57.8817C95.0932 57.8795 95.0518 57.8671 95.0114 57.8604C94.5767 57.7676 94.1721 57.6132 93.8102 57.4152C93.4494 57.2083 93.2902 56.8089 93.3351 56.2104C93.3642 55.829 93.5401 55.499 93.8662 55.2182C94.1889 54.943 94.6562 54.7998 95.2714 54.7998C95.89 54.7998 96.3808 54.943 96.7517 55.2305C97.1226 55.509 97.2918 55.9117 97.2638 56.4386H96.5612V56.3581C96.5612 56.0505 96.4323 55.8189 96.1735 55.6489C95.9079 55.4878 95.6244 55.4028 95.3095 55.3905H95.2714C94.961 55.3905 94.6887 55.4676 94.4343 55.6187C94.1856 55.7708 94.0511 56.0057 94.0354 56.3279C94.0769 56.5874 94.2293 56.7742 94.4859 56.885C94.747 56.9857 95.0518 57.0774 95.3913 57.1523C95.4529 57.168 95.5123 57.1837 95.5773 57.196C95.6412 57.2105 95.7073 57.2306 95.7712 57.2418C96.1768 57.3358 96.5455 57.4812 96.8918 57.6669C97.2358 57.8604 97.4397 58.1916 97.4991 58.6715C97.535 59.261 97.3187 59.7084 96.857 60.015C96.4021 60.3192 95.8944 60.4803 95.3353 60.4893H95.3196C94.7739 60.4893 94.2719 60.3349 93.8158 60.015C93.362 59.7084 93.1468 59.2174 93.158 58.5529H93.8662Z" fill="white"/>
<path fill-rule="evenodd" clip-rule="evenodd" d="M102.148 54.8602H103.028L105.018 60.3069H104.2L103.613 58.7218H101.561L101.033 60.3069H100.214L102.148 54.8602ZM103.379 58.0819L102.622 55.7976L101.734 58.0819H103.379Z" fill="white"/>
<path fill-rule="evenodd" clip-rule="evenodd" d="M107.97 54.8602H108.852L111.545 59.2476V54.8602H112.253V60.3069H111.427L108.669 55.9677V60.3069H107.97V54.8602Z" fill="white"/>
<path fill-rule="evenodd" clip-rule="evenodd" d="M117.016 55.4397H115.197V54.8602H119.48V55.4397H117.775V60.3069H117.016V55.4397Z" fill="white"/>
<path fill-rule="evenodd" clip-rule="evenodd" d="M123.483 54.8602H124.366L126.349 60.3069H125.527L124.942 58.7218H122.896L122.366 60.3069H121.547L123.483 54.8602ZM124.714 58.0819L123.952 55.7976L123.068 58.0819H124.714Z" fill="white"/>
<path fill-rule="evenodd" clip-rule="evenodd" d="M129.418 54.8602H132.176C132.564 54.8602 132.887 54.9889 133.155 55.235C133.422 55.4788 133.582 55.829 133.635 56.2686C133.635 56.3581 133.632 56.4509 133.621 56.5527C133.615 56.6556 133.594 56.7619 133.566 56.8604C133.519 57.0013 133.444 57.1355 133.342 57.2687C133.236 57.4018 133.084 57.5181 132.881 57.6132C133.151 57.7486 133.328 57.9242 133.403 58.1367C133.478 58.3538 133.522 58.5741 133.527 58.8023V59.0965C133.522 59.3068 133.533 59.5048 133.552 59.6917C133.575 59.8751 133.663 60.0217 133.818 60.1279V60.3069H132.936C132.907 60.2029 132.878 60.1056 132.861 59.9959C132.842 59.8919 132.829 59.7879 132.825 59.6805C132.823 59.6301 132.816 59.5798 132.816 59.5227C132.815 59.4702 132.815 59.4198 132.815 59.3661V59.2845C132.802 58.9679 132.759 58.6838 132.683 58.4309C132.613 58.1804 132.361 58.0215 131.941 57.9622H130.123V60.3069H129.418V54.8602ZM131.997 57.319C132.015 57.319 132.031 57.3235 132.046 57.3235H132.084C132.318 57.3235 132.504 57.2284 132.664 57.0393C132.823 56.8492 132.907 56.6456 132.908 56.4163V56.3737C132.907 56.1657 132.816 55.9755 132.65 55.8032C132.485 55.6276 132.204 55.5303 131.821 55.5034H130.123V57.319H131.997Z" fill="white"/>
<path fill-rule="evenodd" clip-rule="evenodd" d="M138.465 54.8602H139.348L141.335 60.3069H140.517L139.927 58.7218H137.877L137.347 60.3069H136.531L138.465 54.8602ZM139.697 58.0819L138.935 55.7976L138.052 58.0819H139.697Z" fill="white"/>
<mask id="mask0_2_2" style="mask-type:luminance" maskUnits="userSpaceOnUse" x="7" y="3" width="62" height="62">
<path d="M7 3H68.9924V64.8568H7V3Z" fill="white"/>
</mask>
<g mask="url(#mask0_2_2)">
<path fill-rule="evenodd" clip-rule="evenodd" d="M25.875 58.3048H31.8801V52.3077H25.875V58.3048ZM20.2564 48.445H26.2638V42.448H20.2564V48.445ZM16.5876 35.5146H22.5917V29.5197H16.5876V35.5146ZM25.1051 40.3348H31.108V34.3389H25.1051V40.3348ZM37.1053 33.7661H43.1116V27.7713H37.1053V33.7661ZM28.2046 30.8722H34.2109V24.8751H28.2046V30.8722ZM24.3297 22.9577H30.336V16.9618H24.3297V22.9577ZM35.5545 17.5356H41.5607V11.5453H35.5545V17.5356ZM7.09302 33.8981C7.09302 31.9371 7.27791 30.0231 7.62865 28.1706H12.1401V22.1769H9.40028C10.401 19.7316 11.712 17.4383 13.2775 15.3599V18.831H19.2826V12.8373H15.3953C21.043 6.77312 29.1089 2.9865 38.059 2.9865C55.16 2.9865 69.0204 16.8231 69.0204 33.8981C69.0204 50.9676 55.16 64.8019 38.059 64.8019C20.9601 64.8019 7.09302 50.9676 7.09302 33.8981Z" fill="white"/>
<path fill-rule="evenodd" clip-rule="evenodd" d="M25.875 58.3048H31.8801V52.3077H25.875V58.3048ZM20.2564 48.445H26.2638V42.448H20.2564V48.445ZM16.5876 35.5146H22.5917V29.5197H16.5876V35.5146ZM25.1051 40.3348H31.108V34.3389H25.1051V40.3348ZM37.1053 33.7661H43.1116V27.7713H37.1053V33.7661ZM28.2046 30.8722H34.2109V24.8751H28.2046V30.8722ZM24.3297 22.9577H30.336V16.9618H24.3297V22.9577ZM35.5545 17.5356H41.5607V11.5453H35.5545V17.5356ZM7.09302 33.8981C7.09302 31.9371 7.27791 30.0231 7.62865 28.1706H12.1401V22.1769H9.40028C10.401 19.7316 11.712 17.4383 13.2775 15.3599V18.831H19.2826V12.8373H15.3953C21.043 6.77312 29.1089 2.9865 38.059 2.9865C55.16 2.9865 69.0204 16.8231 69.0204 33.8981C69.0204 50.9676 55.16 64.8019 38.059 64.8019C20.9601 64.8019 7.09302 50.9676 7.09302 33.8981Z" fill="white"/>
</g>
</svg>
