<svg width="20" height="20" viewBox="0 0 20 20" fill="none" xmlns="http://www.w3.org/2000/svg">
<path d="M16.9426 11.0572C17.1926 11.3072 17.333 11.6463 17.333 11.9998C17.333 12.3534 17.1926 12.6925 16.9426 12.9425L10.9426 18.9425C10.6926 19.1925 10.3535 19.3329 9.99996 19.3329C9.64641 19.3329 9.30733 19.1925 9.05729 18.9425L3.05729 12.9425C2.81441 12.691 2.68002 12.3542 2.68306 12.0046C2.6861 11.655 2.82632 11.3206 3.07353 11.0734C3.32075 10.8262 3.65516 10.686 4.00476 10.6829C4.35435 10.6799 4.69115 10.8143 4.94262 11.0572L8.66663 14.6665L8.66663 1.99984C8.66663 1.64621 8.8071 1.30708 9.05715 1.05703C9.3072 0.806979 9.64634 0.666504 9.99996 0.666504C10.3536 0.666504 10.6927 0.806979 10.9428 1.05703C11.1928 1.30708 11.3333 1.64621 11.3333 1.99984L11.3333 14.6665L15.0573 11.0572C15.3073 10.8072 15.6464 10.6668 16 10.6668C16.3535 10.6668 16.6926 10.8072 16.9426 11.0572Z" fill="white" fill-opacity="0.77"/>
</svg>
