<svg width="26" height="42" viewBox="0 0 26 42" fill="none" xmlns="http://www.w3.org/2000/svg">
<path d="M0.806641 18.2172C0.806641 8.58677 8.61367 0.779724 18.2441 0.779724H23.6193V41.9329H18.2441C8.61367 41.9329 0.806641 34.1259 0.806641 24.4954V18.2172Z" fill="#D9D9D9" fill-opacity="0.4"/>
<g clip-path="url(#clip0_429_371)">
<path d="M11.7724 29.8304C11.6762 30.0932 11.5457 30.2407 11.4097 30.2407C11.2737 30.2407 11.1432 30.0932 11.047 29.8304L8.13839 21.8804C8.04227 21.6173 7.98828 21.2607 7.98828 20.889C7.98828 20.5172 8.04227 20.1606 8.13839 19.8975L11.047 11.9475C11.1443 11.6994 11.273 11.5642 11.406 11.5705C11.5391 11.5768 11.666 11.724 11.7601 11.9812C11.8542 12.2383 11.9081 12.5853 11.9104 12.9489C11.9127 13.3126 11.8632 13.6644 11.7724 13.9303L9.73984 19.486L14.8316 19.486C14.9677 19.486 15.0983 19.6338 15.1946 19.8969C15.2908 20.16 15.3449 20.5169 15.3449 20.889C15.3449 21.261 15.2908 21.6179 15.1946 21.881C15.0983 22.1441 14.9677 22.2919 14.8316 22.2919L9.73984 22.2919L11.7724 27.8476C11.8686 28.1106 11.9226 28.4672 11.9226 28.839C11.9226 29.2108 11.8686 29.5674 11.7724 29.8304Z" fill="white" fill-opacity="0.75"/>
</g>
<defs>
<clipPath id="clip0_429_371">
<rect width="29.9296" height="10.9501" fill="white" transform="translate(6.44873 36.321) rotate(-90)"/>
</clipPath>
</defs>
</svg>
